<?xml version="1.0" encoding="UTF-8" standalone="no"?>
<svg
   xmlns:dc="http://purl.org/dc/elements/1.1/"
   xmlns:cc="http://creativecommons.org/ns#"
   xmlns:rdf="http://www.w3.org/1999/02/22-rdf-syntax-ns#"
   xmlns:svg="http://www.w3.org/2000/svg"
   xmlns="http://www.w3.org/2000/svg"
   xmlns:xlink="http://www.w3.org/1999/xlink"
   id="svg8"
   version="1.1"
   preserveAspectRatio="none"
   height="771"
   width="914"
   viewBox="0 0 914 771"
   class="map"><metadata
   id="metadata14">
  <rdf:RDF>
    <cc:Work
       rdf:about="">
      <dc:format>image/svg+xml</dc:format>
      <dc:type
         rdf:resource="http://purl.org/dc/dcmitype/StillImage" />
      <dc:title></dc:title>
    </cc:Work>
  </rdf:RDF>
</metadata>
<defs
   id="defs12" />
<image
   xlink:href="background.jpg"
   cx="0"
   cy="0"
   id="image2" />
<image
   xlink:href="ship-right.png"
   x="100"
   y="100"
   width="48"
   height="48"
   id="image4" />
<path
   id="path6" />
{routePath}
      d=&quot;m 132.89417,122.67756 c 0,0 423.94256,15.24466 455.98525,94.20205 13.0901,32.25572 -431.53196,49.65739
      -429.22123,77.68033 1.78224,21.61373 310.16866,34.94889 417.8882,105.46853 125.2475,81.99448
      -808.33804,1.76305 -281.63575,113.82589&quot;
      id=&quot;path1&quot;
      style=&quot;fill:none;stroke:red&quot; /&gt;
<path
   id="path825"
   d="m 117.61017,575.79979 c 0,0 188.67666,-41.08891 271.98903,-82.46016 40.65385,-20.18789 243.57759,-179.42535 292.29311,-215.31042 48.71552,-35.88507 168.33121,-77.11184 168.33121,-77.11184"
   style="fill:none;stroke:#000000;stroke-width:1px;stroke-linecap:butt;stroke-linejoin:miter;stroke-opacity:1" />
<path
   id="path854"
   d="m 117.61017,575.79979 c 0,0 177.44306,-16.24475 266.22161,-12.84221 100.41931,3.84868 203.95205,5.29378 299.13376,37.53183 53.08149,17.9787 145.20607,84.75317 145.20607,84.75317"
   style="fill:none;stroke:#000000;stroke-width:1px;stroke-linecap:butt;stroke-linejoin:miter;stroke-opacity:1" />
<path
   id="path854-4"
   d="m 828.17161,685.24258 c 0,0 -204.23497,-126.00498 -219.73708,-207.22568 -2.99002,-15.66573 -27.1846,-52.69457 14.09245,-118.46499 13.16597,-20.97852 42.52811,-62.36231 88.08927,-95.0242 57.53297,-41.24424 139.60727,-63.61034 139.60727,-63.61034"
   style="fill:none;stroke:#000000;stroke-width:1px;stroke-linecap:butt;stroke-linejoin:miter;stroke-opacity:1" />
</svg>
