<?xml version="1.0" encoding="UTF-8" standalone="no"?>
<svg
   xmlns:dc="http://purl.org/dc/elements/1.1/"
   xmlns:cc="http://creativecommons.org/ns#"
   xmlns:rdf="http://www.w3.org/1999/02/22-rdf-syntax-ns#"
   xmlns:svg="http://www.w3.org/2000/svg"
   xmlns="http://www.w3.org/2000/svg"
   xmlns:xlink="http://www.w3.org/1999/xlink"
   class="map"
   viewBox="0 0 914 771"
   width="914"
   height="771"
   preserveAspectRatio="none"
   version="1.1"
   id="svg8"><metadata
   id="metadata14">
  <rdf:RDF>
    <cc:Work
       rdf:about="">
      <dc:format>image/svg+xml</dc:format>
      <dc:type
         rdf:resource="http://purl.org/dc/dcmitype/StillImage" />
      <dc:title></dc:title>
    </cc:Work>
  </rdf:RDF>
</metadata>
<defs
   id="defs12" />
<image
   xlink:href="background.jpg"
   cx="0"
   cy="0"
   id="image2" />
<image
   xlink:href="ship-right.png"
   x="100"
   y="100"
   width="48"
   height="48"
   id="image4" />
<path
   id="path6" />

{routePath}
      d=&quot;m 132.89417,122.67756 c 0,0 423.94256,15.24466 455.98525,94.20205 13.0901,32.25572 -431.53196,49.65739
      -429.22123,77.68033 1.78224,21.61373 310.16866,34.94889 417.8882,105.46853 125.2475,81.99448
      -808.33804,1.76305 -281.63575,113.82589&quot;
      id=&quot;path1&quot;
      style=&quot;fill:none;stroke:red&quot; /&gt;
<path
   id="carhles-town-bridgetown"
   d="m 1004.8856,362.1155 c 0,0 -12.05335,172.60364 29.0602,243.10195 25.7185,44.09996 123.4052,90.70489 123.4052,90.70489"
   style="fill:none;stroke:#000000;stroke-width:1px;stroke-linecap:butt;stroke-linejoin:miter;stroke-opacity:1" />
<path
   id="charles-town-bermuda"
   d="m 1004.8856,362.1155 c 0,0 0,0 3.5307,-96.47393 2.821,-77.08159 126.989,-193.441345 126.989,-193.441345"
   style="fill:none;stroke:#000000;stroke-width:1px;stroke-linecap:butt;stroke-linejoin:miter;stroke-opacity:1" />
<path
   id="bermuda-charles-town"
   d="m 1135.4053,72.200225 c 0,0 -103.6062,116.053475 -126.9887,187.959445 -10.516,32.3388 -3.531,101.95583 -3.531,101.95583"
   style="fill:none;stroke:#000000;stroke-width:1px;stroke-linecap:butt;stroke-linejoin:miter;stroke-opacity:1" />
<path
   id="bridgedown-charles-town"
   d="m 1157.351,695.92234 c 0,0 -13.5248,-83.56164 -32.5131,-120.62323 -29.3659,-57.31656 -101.4462,-88.76255 -122.0352,-149.78415 -6.75992,-20.03487 2.0829,-63.39946 2.0829,-63.39946"
   style="fill:none;stroke:#000000;stroke-width:1px;stroke-linecap:butt;stroke-linejoin:miter;stroke-opacity:1" />
</svg>
